<svg width="88" height="161" viewBox="0 0 88 161" fill="none" xmlns="http://www.w3.org/2000/svg">
<g filter="url(#filter0_d)">
<mask id="path-1-inside-1" fill="white">
<path fill-rule="evenodd" clip-rule="evenodd" d="M74.0434 79.3575L83.781 61L63.0007 61L46.9001 61L73.8889 13.1399L52.1126 0.86008L14.6126 67.3601L4.10138 86H25.5007H42.2204L23.9286 120.484L9.02546 118.5L33.2252 152.499L65.4759 126.014L50.3617 124.002L74.0434 79.3575Z"/>
</mask>
<path fill-rule="evenodd" clip-rule="evenodd" d="M74.0434 79.3575L83.781 61L63.0007 61L46.9001 61L73.8889 13.1399L52.1126 0.86008L14.6126 67.3601L4.10138 86H25.5007H42.2204L23.9286 120.484L9.02546 118.5L33.2252 152.499L65.4759 126.014L50.3617 124.002L74.0434 79.3575Z" fill="#F7D41D"/>
<path d="M83.781 61L84.6644 61.4686L85.4435 60L83.781 60L83.781 61ZM74.0434 79.3575L74.9268 79.8261L74.9268 79.8261L74.0434 79.3575ZM63.0007 61L63.0007 60L63.0007 60L63.0007 61ZM46.9001 61L46.0291 60.5088L45.1882 62L46.9001 62L46.9001 61ZM73.8889 13.1399L74.7599 13.6311L75.2511 12.7601L74.38 12.2689L73.8889 13.1399ZM52.1126 0.86008L52.6038 -0.0109707L51.7327 -0.502164L51.2415 0.368886L52.1126 0.86008ZM14.6126 67.3601L15.4837 67.8513L15.4837 67.8513L14.6126 67.3601ZM4.10138 86L3.23033 85.5088L2.38943 87H4.10138V86ZM42.2204 86L43.1038 86.4686L43.8828 85H42.2204V86ZM23.9286 120.484L23.7967 121.475L24.4861 121.567L24.812 120.952L23.9286 120.484ZM9.02546 118.5L9.15741 117.509L6.87631 117.205L8.21077 119.08L9.02546 118.5ZM33.2252 152.499L32.4105 153.078L33.0318 153.951L33.8599 153.271L33.2252 152.499ZM65.4759 126.014L66.1106 126.787L67.889 125.327L65.6079 125.023L65.4759 126.014ZM50.3617 124.002L49.4783 123.534L48.8045 124.804L50.2297 124.994L50.3617 124.002ZM82.8976 60.5314L73.1599 78.8889L74.9268 79.8261L84.6644 61.4686L82.8976 60.5314ZM63.0007 62L83.781 62L83.781 60L63.0007 60L63.0007 62ZM46.9001 62L63.0007 62L63.0007 60L46.9001 60L46.9001 62ZM73.0178 12.6487L46.0291 60.5088L47.7712 61.4912L74.7599 13.6311L73.0178 12.6487ZM51.6214 1.73113L73.3977 14.011L74.38 12.2689L52.6038 -0.0109707L51.6214 1.73113ZM15.4837 67.8513L52.9836 1.35127L51.2415 0.368886L13.7416 66.8689L15.4837 67.8513ZM4.97243 86.4912L15.4837 67.8513L13.7416 66.8689L3.23033 85.5088L4.97243 86.4912ZM25.5007 85H4.10138V87H25.5007V85ZM42.2204 85H25.5007V87H42.2204V85ZM24.812 120.952L43.1038 86.4686L41.337 85.5314L23.0452 120.015L24.812 120.952ZM24.0606 119.493L9.15741 117.509L8.89351 119.491L23.7967 121.475L24.0606 119.493ZM8.21077 119.08L32.4105 153.078L34.0399 151.919L9.84015 117.92L8.21077 119.08ZM33.8599 153.271L66.1106 126.787L64.8413 125.241L32.5906 151.726L33.8599 153.271ZM65.6079 125.023L50.4936 123.011L50.2297 124.994L65.344 127.005L65.6079 125.023ZM73.1599 78.8889L49.4783 123.534L51.2451 124.471L74.9268 79.8261L73.1599 78.8889Z" fill="white" mask="url(#path-1-inside-1)"/>
</g>
<defs>
<filter id="filter0_d" x="0.101383" y="0.860107" width="87.6797" height="159.638" filterUnits="userSpaceOnUse" color-interpolation-filters="sRGB">
<feFlood flood-opacity="0" result="BackgroundImageFix"/>
<feColorMatrix in="SourceAlpha" type="matrix" values="0 0 0 0 0 0 0 0 0 0 0 0 0 0 0 0 0 0 127 0"/>
<feOffset dy="4"/>
<feGaussianBlur stdDeviation="2"/>
<feColorMatrix type="matrix" values="0 0 0 0 0 0 0 0 0 0 0 0 0 0 0 0 0 0 0.25 0"/>
<feBlend mode="normal" in2="BackgroundImageFix" result="effect1_dropShadow"/>
<feBlend mode="normal" in="SourceGraphic" in2="effect1_dropShadow" result="shape"/>
</filter>
</defs>
</svg>
